<svg xmlns="http://www.w3.org/2000/svg" width="20" height="18.182" viewBox="0 0 20 18.182"><defs><style>.a{fill:#fff;}</style></defs><path class="a" d="M5.818,5A1.818,1.818,0,1,0,7.636,6.818,1.818,1.818,0,0,0,5.818,5Zm5.455.909a.909.909,0,1,0,0,1.818H23.091a.909.909,0,1,0,0-1.818ZM5.818,12.273a1.818,1.818,0,1,0,1.818,1.818A1.818,1.818,0,0,0,5.818,12.273Zm5.455.909a.909.909,0,1,0,0,1.818H23.091a.909.909,0,1,0,0-1.818ZM5.818,19.545a1.818,1.818,0,1,0,1.818,1.818A1.818,1.818,0,0,0,5.818,19.545Zm5.455.909a.909.909,0,1,0,0,1.818H23.091a.909.909,0,1,0,0-1.818Z" transform="translate(-4 -5)"/></svg>