<svg xmlns="http://www.w3.org/2000/svg" width="20" height="19.231" viewBox="0 0 20 19.231"><defs><style>.a{fill:#fff;}</style></defs><path class="a" d="M10.462,3C5.788,3,2,6.444,2,10.692a7.337,7.337,0,0,0,2.613,5.542,4.276,4.276,0,0,1-1.594,2.174h0a.384.384,0,0,0,.215.735A6.135,6.135,0,0,0,7.011,17.7a9,9,0,0,0,1.505.469A6.243,6.243,0,0,1,8.965,13H7.385a.769.769,0,1,1,0-1.538H10.13a7.67,7.67,0,0,1,2.209-1.538H7.385a.769.769,0,1,1,0-1.538h6.154a.709.709,0,0,1,.741.915,8.523,8.523,0,0,1,1.567-.146,8.38,8.38,0,0,1,3,.548C18.31,5.922,14.765,3,10.462,3Zm5.385,7.692c-3.4,0-6.154,2.411-6.154,5.385s2.755,5.385,6.154,5.385a6.9,6.9,0,0,0,2.3-.392,5.942,5.942,0,0,0,3.392,1.152.384.384,0,0,0,.213-.736,4.488,4.488,0,0,1-1.426-1.722A5.025,5.025,0,0,0,22,16.077C22,13.1,19.245,10.692,15.846,10.692Zm-2.308,3.077h4.615a.769.769,0,0,1,0,1.538H13.538a.769.769,0,1,1,0-1.538Zm0,3.077h4.615a.769.769,0,0,1,0,1.538H13.538a.769.769,0,1,1,0-1.538Z" transform="translate(-2 -3)"/></svg>