<svg xmlns="http://www.w3.org/2000/svg" width="20" height="20.833" viewBox="0 0 20 20.833"><defs><style>.a{fill:#fff;}</style></defs><path class="a" d="M3.833,5A.833.833,0,0,0,3,5.833V20a.833.833,0,0,0,.965.833H8.291A4.976,4.976,0,0,1,8,19.167H4.667V6.667H21.333v12.5H18a4.976,4.976,0,0,1-.291,1.667h4.318A.833.833,0,0,0,23,20V5.833A.833.833,0,0,0,22.167,5Zm5,4.167a.833.833,0,1,0,0,1.667h8.333a.833.833,0,1,0,0-1.667Zm0,3.333a.833.833,0,1,0,0,1.667h8.333a.833.833,0,1,0,0-1.667ZM13,15.833a3.346,3.346,0,0,0-3.333,3.333,3.3,3.3,0,0,0,.833,2.176v4.491L13,24.167l2.5,1.667V21.343a3.3,3.3,0,0,0,.833-2.176A3.346,3.346,0,0,0,13,15.833ZM13,17.5a1.667,1.667,0,1,1-1.667,1.667A1.654,1.654,0,0,1,13,17.5Z" transform="translate(-3 -5)"/></svg>