<svg xmlns="http://www.w3.org/2000/svg" xmlns:xlink="http://www.w3.org/1999/xlink" width="22.888" height="30.45" viewBox="0 0 22.888 30.45"><defs><style>.a{fill:#f3903b;}.b{filter:url(#e);}.c{filter:url(#c);}.d{filter:url(#a);}</style><filter id="a" x="3.549" y="3.54" width="13.804" height="11.417" filterUnits="userSpaceOnUse"><feOffset dy="1" input="SourceAlpha"/><feGaussianBlur result="b"/><feFlood flood-opacity="0.071"/><feComposite operator="in" in2="b"/><feComposite in="SourceGraphic"/></filter><filter id="c" x="3.506" y="15.485" width="15.833" height="11.417" filterUnits="userSpaceOnUse"><feOffset dy="1" input="SourceAlpha"/><feGaussianBlur result="d"/><feFlood flood-opacity="0.071"/><feComposite operator="in" in2="d"/><feComposite in="SourceGraphic"/></filter><filter id="e" x="0" y="0" width="22.888" height="30.45" filterUnits="userSpaceOnUse"><feOffset dy="1" input="SourceAlpha"/><feGaussianBlur result="f"/><feFlood flood-opacity="0.071"/><feComposite operator="in" in2="f"/><feComposite in="SourceGraphic"/></filter></defs><g transform="translate(0)"><g class="d" transform="matrix(1, 0, 0, 1, 0, 0)"><path class="a" d="M70.741,72.22H62.15V82.637h8.591a5.208,5.208,0,1,0,0-10.417Zm0,8.4H64.171V74.241h6.571a3.233,3.233,0,0,1,3.192,3.192A3.2,3.2,0,0,1,70.741,80.625Z" transform="translate(-58.6 -68.68)"/></g><g class="c" transform="matrix(1, 0, 0, 1, 0, 0)"><path class="a" d="M72.729,86.29H62.1V96.707H72.729a5.208,5.208,0,0,0,0-10.417Zm0,8.4H64.121V88.311h8.608a3.188,3.188,0,0,1,0,6.376Z" transform="translate(-58.59 -70.8)"/></g><g class="b" transform="matrix(1, 0, 0, 1, 0, 0)"><path class="a" d="M77.513,81.854l-.144-.11.1-.153a8.876,8.876,0,0,0,1.4-4.788A8.764,8.764,0,0,0,70.11,68.05H57.97V97.5H72.105a8.76,8.76,0,0,0,5.408-15.646ZM72.105,95.48H59.991V70.062H70.11A6.758,6.758,0,0,1,75.764,80.5l-1.078,1.7,1.579,1.248a6.741,6.741,0,0,1-4.16,12.038Z" transform="translate(-57.97 -68.05)"/></g></g></svg>