<svg xmlns="http://www.w3.org/2000/svg" width="20" height="18.461" viewBox="0 0 20 18.461"><defs><style>.a{fill:#fff;}</style></defs><path class="a" d="M12,2a.769.769,0,0,0-.364.092l0,0L3.244,6.674a.769.769,0,0,0,.294,1.48H20.461a.768.768,0,0,0,.294-1.478v0L12.364,2.092A.769.769,0,0,0,12,2Zm0,2.308a1.154,1.154,0,1,1-1.154,1.154A1.154,1.154,0,0,1,12,4.308ZM5.077,9.692v6.154H4.308a.769.769,0,1,0,0,1.539H19.692a.769.769,0,1,0,0-1.539h-.769V9.692H17.384v6.154H15.846V9.692H14.308v6.154H12.769V9.692H11.231v6.154H9.692V9.692H8.154v6.154H6.615V9.692ZM2.769,18.923a.769.769,0,1,0,0,1.539H21.231a.769.769,0,1,0,0-1.539Z" transform="translate(-2 -2)"/></svg>